# xmcd
# 
# Track frame offsets:
#     150
#     15146
#     27978
#     40079
#     58792
#     77996
#     92224
#     108441
#     118079
#     135461
#     152953
#     173723
#     186895
#     198874
#     213423
#     224935
#     237531
#     250963
#     284205
#     296742
# 
# Disc length: 4136
# 
# Revision: 1
# Processed by: cddbd v1.5.2PL0 Copyright (c) Steve Scherf et al.
# Submitted via: fre:ac v1.0.31
# 
DISCID=35102614
DTITLE=Various Artist - Saturday Night Soul
DYEAR=2005
DGENRE=
TTITLE0=Leroy Hutson - I love To Hold You Close
TTITLE1=Lee Dorsey - Sneakin' Sally Thru The Alley
TTITLE2=Alvin Cash - Keep On Dancing
TTITLE3=Cymande - Brothers On the Slide
TTITLE4=Natural Four - Heaven Right Here On earth
TTITLE5=Alder Ray Black - Just Because The Package Has Been Opened
TTITLE6=Bobby womack - - That's The Way I feel Bout Cha
TTITLE7=Willy  Hobbs With Pic and Bill - - Action
TTITLE8=Aaron Neville - Make Me Strong
TTITLE9=Curtis Mayfield - Trippin' Out
TTITLE10=Linda Clifford - - Never Gonna Stop
TTITLE11=Ella Washington - Too Weak To Fight
TTITLE12=Joe Tex - Papa Was Too
TTITLE13=Ann Sexton - You Can't Win
TTITLE14=Jackie Beaver - Mr Bump Man
TTITLE15=Joe Simon - You Keep ME Hanging On
TTITLE16=Chuck Ray - A'll Be There
TTITLE17=Syl Johnson - Is It Because I'm Black?
TTITLE18=Sam Baker - Hold Back Girl
TTITLE19=Allen Toussaint and The Stokes - Go Back Home
EXTD=
EXTT0=
EXTT1=
EXTT2=
EXTT3=
EXTT4=
EXTT5=
EXTT6=
EXTT7=
EXTT8=
EXTT9=
EXTT10=
EXTT11=
EXTT12=
EXTT13=
EXTT14=
EXTT15=
EXTT16=
EXTT17=
EXTT18=
EXTT19=
PLAYORDER=
